<mxfile host="app.diagrams.net" agent="Mozilla/5.0 (Windows NT 10.0; Win64; x64) AppleWebKit/537.36 (KHTML, like Gecko) Chrome/135.0.0.0 Safari/537.36 OPR/120.0.0.0" version="28.0.7">
  <diagram id="QDZp0Gujsq3bFdAv7j2x" name="Page-1">
    <mxGraphModel dx="2733" dy="1484" grid="1" gridSize="10" guides="1" tooltips="1" connect="1" arrows="1" fold="1" page="1" pageScale="1" pageWidth="1654" pageHeight="1169" math="0" shadow="0">
      <root>
        <mxCell id="0" />
        <mxCell id="1" parent="0" />
        <mxCell id="_104g25UOZVp8Q_bf5Z8-25" value="&lt;font style=&quot;font-size: 24px;&quot;&gt;Car Park Office&lt;/font&gt;" style="whiteSpace=wrap;html=1;aspect=fixed;" vertex="1" parent="1">
          <mxGeometry x="827" y="350" width="760" height="760" as="geometry" />
        </mxCell>
        <mxCell id="_104g25UOZVp8Q_bf5Z8-26" value="&lt;font style=&quot;font-size: 24px;&quot;&gt;Management Office&lt;/font&gt;" style="whiteSpace=wrap;html=1;aspect=fixed;" vertex="1" parent="1">
          <mxGeometry x="67" y="350" width="760" height="760" as="geometry" />
        </mxCell>
        <mxCell id="_104g25UOZVp8Q_bf5Z8-32" value="" style="strokeColor=#666666;html=1;verticalLabelPosition=bottom;labelBackgroundColor=#ffffff;verticalAlign=top;outlineConnect=0;shadow=0;dashed=0;shape=mxgraph.rackGeneral.rackCabinet3;fillColor2=#f4f4f4;container=1;collapsible=0;childLayout=rack;allowGaps=1;marginLeft=33;marginRight=9;marginTop=21;marginBottom=22;textColor=#666666;numDisp=ascend;points=[[0,0.07,0,0,0],[0,0.08,0,0,0],[0,0.14,0,0,0],[0,0.15,0,0,0],[0,0.21,0,0,0],[0,0.23,0,0,0],[0,0.29,0,0,0],[0,0.31,0,0,0],[0,0.36,0,0,0],[0,0.38,0,0,0],[0,0.43,0,0,0],[0,0.46,0,0,0],[0,0.5,0,0,0],[0,0.54,0,0,0],[0,0.57,0,0,0],[0,0.62,0,0,0],[0,0.64,0,0,0],[0,0.69,0,0,0],[0,0.71,0,0,0],[0,0.77,0,0,0],[0,0.79,0,0,0],[0,0.85,0,0,0],[0,0.86,0,0,0],[0,0.92,0,0,0],[0,0.93,0,0,0]];" vertex="1" parent="1">
          <mxGeometry x="1370" y="875" width="204" height="219" as="geometry" />
        </mxCell>
        <mxCell id="_104g25UOZVp8Q_bf5Z8-34" value="" style="verticalLabelPosition=bottom;html=1;verticalAlign=top;align=center;shape=mxgraph.floorplan.doorLeft;aspect=fixed;" vertex="1" parent="1">
          <mxGeometry x="870" y="350" width="136.47" height="145" as="geometry" />
        </mxCell>
        <mxCell id="_104g25UOZVp8Q_bf5Z8-35" value="" style="verticalLabelPosition=bottom;html=1;verticalAlign=top;align=center;shape=mxgraph.floorplan.windowGlider;dx=0.25;" vertex="1" parent="1">
          <mxGeometry x="1230" y="350" width="260" height="10" as="geometry" />
        </mxCell>
        <mxCell id="_104g25UOZVp8Q_bf5Z8-36" value="" style="verticalLabelPosition=bottom;html=1;verticalAlign=top;align=center;shape=mxgraph.floorplan.doorDouble;aspect=fixed;" vertex="1" parent="1">
          <mxGeometry x="319.94" y="350" width="254.12" height="135" as="geometry" />
        </mxCell>
        <mxCell id="_104g25UOZVp8Q_bf5Z8-39" style="edgeStyle=orthogonalEdgeStyle;rounded=0;orthogonalLoop=1;jettySize=auto;html=1;strokeWidth=3;" edge="1" parent="1" source="_104g25UOZVp8Q_bf5Z8-37" target="_104g25UOZVp8Q_bf5Z8-32">
          <mxGeometry relative="1" as="geometry">
            <Array as="points">
              <mxPoint x="1511" y="855" />
              <mxPoint x="1472" y="855" />
            </Array>
          </mxGeometry>
        </mxCell>
        <mxCell id="_104g25UOZVp8Q_bf5Z8-37" value="2 x Monitor" style="shape=mxgraph.networks2.icon;aspect=fixed;fillColor=#EDEDED;strokeColor=#000000;gradientColor=#5B6163;network2IconShadow=1;network2bgFillColor=none;network2Icon=mxgraph.networks2.monitor;network2IconYOffset=-0.009;network2IconW=1;network2IconH=0.742;fontSize=18;" vertex="1" parent="1">
          <mxGeometry x="1463.18" y="670" width="102.43" height="76" as="geometry" />
        </mxCell>
        <mxCell id="_104g25UOZVp8Q_bf5Z8-44" style="edgeStyle=orthogonalEdgeStyle;rounded=0;orthogonalLoop=1;jettySize=auto;html=1;exitX=1;exitY=0.5;exitDx=0;exitDy=0;strokeColor=#0000FF;strokeWidth=3;" edge="1" parent="1" source="_104g25UOZVp8Q_bf5Z8-65">
          <mxGeometry relative="1" as="geometry">
            <mxPoint x="1370" y="1048" as="targetPoint" />
            <Array as="points">
              <mxPoint x="1130" y="1033" />
              <mxPoint x="1130" y="1048" />
            </Array>
          </mxGeometry>
        </mxCell>
        <mxCell id="_104g25UOZVp8Q_bf5Z8-49" value="" style="group" vertex="1" connectable="0" parent="1">
          <mxGeometry x="1200" y="805" width="143.77999999999997" height="120" as="geometry" />
        </mxCell>
        <mxCell id="_104g25UOZVp8Q_bf5Z8-50" value="" style="rounded=1;whiteSpace=wrap;html=1;" vertex="1" parent="_104g25UOZVp8Q_bf5Z8-49">
          <mxGeometry x="1.8899999999999864" width="140" height="120" as="geometry" />
        </mxCell>
        <mxCell id="_104g25UOZVp8Q_bf5Z8-46" value="1&#xa;&#xa;" style="shape=mxgraph.networks2.icon;aspect=fixed;fillColor=#EDEDED;strokeColor=#000000;gradientColor=#5B6163;network2IconShadow=1;network2bgFillColor=none;network2Icon=mxgraph.networks2.desktop_pc;network2IconXOffset=-0.0034;network2IconYOffset=0.00035;network2IconW=0.453;network2IconH=0.9995;" vertex="1" parent="_104g25UOZVp8Q_bf5Z8-49">
          <mxGeometry x="23.77999999999999" y="30" width="36.26" height="80" as="geometry" />
        </mxCell>
        <mxCell id="_104g25UOZVp8Q_bf5Z8-47" value="&lt;font style=&quot;font-size: 18px;&quot;&gt;Desktop Servers&lt;/font&gt;" style="text;strokeColor=none;align=center;fillColor=none;html=1;verticalAlign=middle;whiteSpace=wrap;rounded=0;" vertex="1" parent="_104g25UOZVp8Q_bf5Z8-49">
          <mxGeometry x="-1.4210854715202004e-14" width="143.78" height="30" as="geometry" />
        </mxCell>
        <mxCell id="_104g25UOZVp8Q_bf5Z8-48" value="2&#xa;&#xa;" style="shape=mxgraph.networks2.icon;aspect=fixed;fillColor=#EDEDED;strokeColor=#000000;gradientColor=#5B6163;network2IconShadow=1;network2bgFillColor=none;network2Icon=mxgraph.networks2.desktop_pc;network2IconXOffset=-0.0034;network2IconYOffset=0.00035;network2IconW=0.453;network2IconH=0.9995;" vertex="1" parent="_104g25UOZVp8Q_bf5Z8-49">
          <mxGeometry x="83.77999999999999" y="30" width="36.26" height="80" as="geometry" />
        </mxCell>
        <mxCell id="_104g25UOZVp8Q_bf5Z8-51" style="edgeStyle=orthogonalEdgeStyle;rounded=0;orthogonalLoop=1;jettySize=auto;html=1;entryX=0;entryY=0.5;entryDx=0;entryDy=0;entryPerimeter=0;exitX=0.5;exitY=1;exitDx=0;exitDy=0;strokeColor=#0000FF;strokeWidth=3;" edge="1" parent="1" source="_104g25UOZVp8Q_bf5Z8-50" target="_104g25UOZVp8Q_bf5Z8-32">
          <mxGeometry relative="1" as="geometry">
            <mxPoint x="1370" y="985" as="targetPoint" />
          </mxGeometry>
        </mxCell>
        <mxCell id="_104g25UOZVp8Q_bf5Z8-53" style="edgeStyle=orthogonalEdgeStyle;rounded=0;orthogonalLoop=1;jettySize=auto;html=1;entryX=0;entryY=0.5;entryDx=0;entryDy=0;strokeColor=#0000FF;strokeWidth=3;" edge="1" parent="1" source="_104g25UOZVp8Q_bf5Z8-52" target="_104g25UOZVp8Q_bf5Z8-65">
          <mxGeometry relative="1" as="geometry">
            <mxPoint x="870" y="805" as="targetPoint" />
          </mxGeometry>
        </mxCell>
        <mxCell id="_104g25UOZVp8Q_bf5Z8-52" value="" style="fillColorStyles=neutralFill;neutralFill=#9DA6A8;shape=mxgraph.networks2.icon;aspect=fixed;fillColor=#EDEDED;strokeColor=#000000;gradientColor=#5B6163;network2IconShadow=1;network2bgFillColor=none;network2Icon=mxgraph.networks2.router;network2IconXOffset=0.0001;network2IconYOffset=-0.1142;network2IconW=1;network2IconH=0.5485;" vertex="1" parent="1">
          <mxGeometry x="397.77" y="798" width="98.45" height="54" as="geometry" />
        </mxCell>
        <mxCell id="_104g25UOZVp8Q_bf5Z8-54" value="&lt;font style=&quot;font-size: 18px;&quot;&gt;Router&lt;/font&gt;" style="text;strokeColor=none;align=center;fillColor=none;html=1;verticalAlign=middle;whiteSpace=wrap;rounded=0;" vertex="1" parent="1">
          <mxGeometry x="380" y="852" width="140" height="30" as="geometry" />
        </mxCell>
        <mxCell id="_104g25UOZVp8Q_bf5Z8-57" style="edgeStyle=orthogonalEdgeStyle;rounded=0;orthogonalLoop=1;jettySize=auto;html=1;strokeWidth=3;exitX=0.502;exitY=0.983;exitDx=0;exitDy=0;exitPerimeter=0;" edge="1" parent="1" source="_104g25UOZVp8Q_bf5Z8-56" target="_104g25UOZVp8Q_bf5Z8-32">
          <mxGeometry relative="1" as="geometry">
            <mxPoint x="1380" y="750" as="sourcePoint" />
            <Array as="points">
              <mxPoint x="1382" y="855" />
              <mxPoint x="1472" y="855" />
            </Array>
          </mxGeometry>
        </mxCell>
        <mxCell id="_104g25UOZVp8Q_bf5Z8-74" value="" style="group" vertex="1" connectable="0" parent="1">
          <mxGeometry x="877.1" y="895" width="122.26" height="85.75999999999999" as="geometry" />
        </mxCell>
        <mxCell id="_104g25UOZVp8Q_bf5Z8-72" value="" style="shape=mxgraph.rack.hp.hp_proliant_dl560_g8;html=1;labelPosition=right;align=left;spacingLeft=15;dashed=0;shadow=0;fillColor=#ffffff;" vertex="1" parent="_104g25UOZVp8Q_bf5Z8-74">
          <mxGeometry y="25" width="122.26" height="25" as="geometry" />
        </mxCell>
        <mxCell id="_104g25UOZVp8Q_bf5Z8-73" value="&lt;font style=&quot;font-size: 18px;&quot;&gt;NVR&lt;/font&gt;" style="text;strokeColor=none;align=center;fillColor=none;html=1;verticalAlign=middle;whiteSpace=wrap;rounded=0;" vertex="1" parent="_104g25UOZVp8Q_bf5Z8-74">
          <mxGeometry x="17.192337888198747" width="87.8709849157054" height="24.999999999999993" as="geometry" />
        </mxCell>
        <mxCell id="_104g25UOZVp8Q_bf5Z8-75" style="edgeStyle=orthogonalEdgeStyle;rounded=0;orthogonalLoop=1;jettySize=auto;html=1;entryX=0;entryY=0.71;entryDx=0;entryDy=0;entryPerimeter=0;strokeColor=#0000FF;strokeWidth=3;" edge="1" parent="1" source="_104g25UOZVp8Q_bf5Z8-72" target="_104g25UOZVp8Q_bf5Z8-32">
          <mxGeometry relative="1" as="geometry">
            <Array as="points">
              <mxPoint x="1160" y="933" />
              <mxPoint x="1160" y="1031" />
            </Array>
          </mxGeometry>
        </mxCell>
        <mxCell id="_104g25UOZVp8Q_bf5Z8-69" value="" style="group" vertex="1" connectable="0" parent="1">
          <mxGeometry x="876.61" y="985" width="123.24000000000001" height="96.52999999999997" as="geometry" />
        </mxCell>
        <mxCell id="_104g25UOZVp8Q_bf5Z8-64" value="" style="group" vertex="1" connectable="0" parent="_104g25UOZVp8Q_bf5Z8-69">
          <mxGeometry width="123.24" height="96.53" as="geometry" />
        </mxCell>
        <mxCell id="_104g25UOZVp8Q_bf5Z8-65" value="" style="rounded=1;whiteSpace=wrap;html=1;" vertex="1" parent="_104g25UOZVp8Q_bf5Z8-64">
          <mxGeometry x="1.6199999999999886" width="120.00000000000003" height="96.53" as="geometry" />
        </mxCell>
        <mxCell id="_104g25UOZVp8Q_bf5Z8-41" value="" style="shape=mxgraph.networks2.icon;aspect=fixed;fillColor=#EDEDED;strokeColor=#000000;gradientColor=#5B6163;network2IconShadow=1;network2bgFillColor=none;network2Icon=mxgraph.networks2.patch_panel;network2IconXOffset=0.0001;network2IconYOffset=-0.0211;network2IconW=1;network2IconH=0.3359;" vertex="1" parent="_104g25UOZVp8Q_bf5Z8-69">
          <mxGeometry x="14.480000000000018" y="56.52999999999997" width="94.28571428571428" height="31.67142857142857" as="geometry" />
        </mxCell>
        <mxCell id="_104g25UOZVp8Q_bf5Z8-42" value="&lt;font style=&quot;font-size: 18px;&quot;&gt;2 x Network Switch&lt;/font&gt;" style="text;strokeColor=none;align=center;fillColor=none;html=1;verticalAlign=middle;whiteSpace=wrap;rounded=0;" vertex="1" parent="_104g25UOZVp8Q_bf5Z8-69">
          <mxGeometry x="3.7657142857143526" y="16.529999999999973" width="115.71428571428571" height="29.99999999999999" as="geometry" />
        </mxCell>
        <mxCell id="_104g25UOZVp8Q_bf5Z8-81" value="" style="group" vertex="1" connectable="0" parent="1">
          <mxGeometry x="867.23" y="815" width="142" height="45" as="geometry" />
        </mxCell>
        <mxCell id="_104g25UOZVp8Q_bf5Z8-79" value="" style="html=1;verticalLabelPosition=bottom;verticalAlign=top;outlineConnect=0;shadow=0;dashed=0;shape=mxgraph.rack.hpe_aruba.switches.jl626a_aruba_8325_32c_f2b_front;" vertex="1" parent="_104g25UOZVp8Q_bf5Z8-81">
          <mxGeometry y="30" width="142" height="15" as="geometry" />
        </mxCell>
        <mxCell id="_104g25UOZVp8Q_bf5Z8-80" value="&lt;font style=&quot;font-size: 18px;&quot;&gt;Fiber Patch Hub&lt;/font&gt;" style="text;strokeColor=none;align=center;fillColor=none;html=1;verticalAlign=middle;whiteSpace=wrap;rounded=0;" vertex="1" parent="_104g25UOZVp8Q_bf5Z8-81">
          <mxGeometry x="2.759999999999991" width="136.35" height="30" as="geometry" />
        </mxCell>
        <mxCell id="_104g25UOZVp8Q_bf5Z8-82" style="edgeStyle=orthogonalEdgeStyle;rounded=0;orthogonalLoop=1;jettySize=auto;html=1;entryX=0;entryY=0.62;entryDx=0;entryDy=0;entryPerimeter=0;strokeColor=#0000FF;strokeWidth=3;" edge="1" parent="1" source="_104g25UOZVp8Q_bf5Z8-79" target="_104g25UOZVp8Q_bf5Z8-32">
          <mxGeometry relative="1" as="geometry" />
        </mxCell>
        <mxCell id="_104g25UOZVp8Q_bf5Z8-85" value="&lt;font style=&quot;font-size: 18px;&quot;&gt;To Junction near&amp;nbsp;&lt;/font&gt;&lt;div&gt;&lt;font style=&quot;font-size: 18px;&quot;&gt;ST-1&amp;nbsp;&lt;br&gt;Sub Basement&lt;/font&gt;&lt;/div&gt;" style="rounded=0;whiteSpace=wrap;html=1;" vertex="1" parent="1">
          <mxGeometry x="1391.21" y="70" width="240" height="170" as="geometry" />
        </mxCell>
        <mxCell id="_104g25UOZVp8Q_bf5Z8-84" style="edgeStyle=orthogonalEdgeStyle;rounded=1;orthogonalLoop=1;jettySize=auto;html=1;entryX=0.5;entryY=1;entryDx=0;entryDy=0;fillColor=#dae8fc;strokeColor=#FFFF00;curved=0;strokeWidth=3;" edge="1" parent="1" source="_104g25UOZVp8Q_bf5Z8-80" target="_104g25UOZVp8Q_bf5Z8-85">
          <mxGeometry relative="1" as="geometry">
            <mxPoint x="1380" y="210" as="targetPoint" />
            <Array as="points">
              <mxPoint x="938" y="590" />
              <mxPoint x="1510" y="590" />
              <mxPoint x="1510" y="240" />
            </Array>
          </mxGeometry>
        </mxCell>
        <mxCell id="_104g25UOZVp8Q_bf5Z8-86" value="&lt;font style=&quot;font-size: 22px;&quot;&gt;Legend&lt;/font&gt;" style="rounded=0;whiteSpace=wrap;html=1;strokeColor=none;strokeWidth=1.5;arcSize=16;fillColor=#F5F6F7;perimeterSpacing=0;imageHeight=24;absoluteArcSize=1;points=[];connectable=0;container=0;align=left;verticalAlign=top;fontSize=18;fontStyle=1;spacingTop=5;spacingLeft=8;" vertex="1" parent="1">
          <mxGeometry x="90" y="140" width="270" height="160" as="geometry" />
        </mxCell>
        <mxCell id="_104g25UOZVp8Q_bf5Z8-87" value="" style="endArrow=none;html=1;strokeColor=#0000FF;bendable=1;rounded=1;endFill=0;endSize=4;strokeWidth=1.5;startSize=4;part=1;" edge="1" parent="_104g25UOZVp8Q_bf5Z8-86">
          <mxGeometry relative="1" as="geometry">
            <mxPoint x="22.500000000000004" y="72.72727272727273" as="sourcePoint" />
            <mxPoint x="120.00000000000001" y="72.72727272727273" as="targetPoint" />
          </mxGeometry>
        </mxCell>
        <mxCell id="_104g25UOZVp8Q_bf5Z8-88" value="Cat 6" style="part=1;fillColor=none;strokeColor=none;align=left;fontSize=18;fontColor=#556B82;" vertex="1" parent="_104g25UOZVp8Q_bf5Z8-86">
          <mxGeometry x="135.00000000000003" y="58.18181818181819" width="135.00000000000003" height="29.090909090909093" as="geometry" />
        </mxCell>
        <mxCell id="_104g25UOZVp8Q_bf5Z8-89" value="" style="edgeStyle=orthogonalEdgeStyle;rounded=0;orthogonalLoop=1;jettySize=auto;html=1;fontSize=18;strokeColor=#FFFF00;fontFamily=Helvetica;fontColor=default;targetPerimeterSpacing=15;endSize=4;startSize=4;endArrow=blockThin;endFill=1;strokeWidth=3;startArrow=none;startFill=0;" edge="1" parent="_104g25UOZVp8Q_bf5Z8-86">
          <mxGeometry relative="1" as="geometry">
            <mxPoint x="22.500000000000004" y="101.81818181818183" as="sourcePoint" />
            <mxPoint x="120.00000000000001" y="101.81818181818183" as="targetPoint" />
          </mxGeometry>
        </mxCell>
        <mxCell id="_104g25UOZVp8Q_bf5Z8-90" value="Fiber " style="part=1;fillColor=none;strokeColor=none;align=left;fontSize=18;fontColor=#556B82;" vertex="1" parent="_104g25UOZVp8Q_bf5Z8-86">
          <mxGeometry x="135.00000000000003" y="87.27272727272728" width="135.00000000000003" height="29.090909090909093" as="geometry" />
        </mxCell>
        <mxCell id="_104g25UOZVp8Q_bf5Z8-91" value="" style="edgeStyle=orthogonalEdgeStyle;rounded=0;orthogonalLoop=1;jettySize=auto;html=1;fontSize=18;strokeColor=#000000;fontFamily=Helvetica;fontColor=default;targetPerimeterSpacing=15;endSize=4;startSize=4;endArrow=blockThin;endFill=1;strokeWidth=1.5;startArrow=none;startFill=0;" edge="1" parent="_104g25UOZVp8Q_bf5Z8-86">
          <mxGeometry relative="1" as="geometry">
            <mxPoint x="22.500000000000004" y="130.90909090909093" as="sourcePoint" />
            <mxPoint x="120.00000000000001" y="130.90909090909093" as="targetPoint" />
          </mxGeometry>
        </mxCell>
        <mxCell id="_104g25UOZVp8Q_bf5Z8-92" value="Connection " style="part=1;fillColor=none;strokeColor=none;align=left;fontSize=18;fontColor=#556B82;" vertex="1" parent="_104g25UOZVp8Q_bf5Z8-86">
          <mxGeometry x="135.00000000000003" y="116.36363636363637" width="135.00000000000003" height="29.090909090909093" as="geometry" />
        </mxCell>
        <mxCell id="_104g25UOZVp8Q_bf5Z8-93" value="" style="group" vertex="1" connectable="0" parent="1">
          <mxGeometry x="1310" y="661" width="143.77999999999997" height="85" as="geometry" />
        </mxCell>
        <mxCell id="_104g25UOZVp8Q_bf5Z8-56" value="" style="shape=mxgraph.networks2.icon;aspect=fixed;fillColor=#EDEDED;strokeColor=#000000;gradientColor=#5B6163;network2IconShadow=1;network2bgFillColor=none;network2Icon=mxgraph.networks2.phone;network2IconXOffset=0.0009;network2IconYOffset=-0.0064;network2IconW=0.9947;network2IconH=0.7947;" vertex="1" parent="_104g25UOZVp8Q_bf5Z8-93">
          <mxGeometry x="40.59999999999991" y="35" width="62.58" height="50" as="geometry" />
        </mxCell>
        <mxCell id="_104g25UOZVp8Q_bf5Z8-58" value="&lt;font style=&quot;font-size: 18px;&quot;&gt;2 x SIP&amp;nbsp;&lt;/font&gt;&lt;div&gt;&lt;font style=&quot;font-size: 18px;&quot;&gt;Phone&lt;/font&gt;&lt;/div&gt;" style="text;strokeColor=none;align=center;fillColor=none;html=1;verticalAlign=middle;whiteSpace=wrap;rounded=0;" vertex="1" parent="_104g25UOZVp8Q_bf5Z8-93">
          <mxGeometry width="143.78" height="30" as="geometry" />
        </mxCell>
        <mxCell id="_104g25UOZVp8Q_bf5Z8-94" value="&lt;font style=&quot;font-size: 42px;&quot;&gt;&lt;u&gt;Car Park Office&amp;nbsp;&lt;/u&gt;&lt;/font&gt;" style="text;strokeColor=none;align=center;fillColor=none;html=1;verticalAlign=middle;whiteSpace=wrap;rounded=0;" vertex="1" parent="1">
          <mxGeometry x="577" width="500" height="90" as="geometry" />
        </mxCell>
      </root>
    </mxGraphModel>
  </diagram>
</mxfile>
